<svg width="24" height="39" viewBox="0 0 24 39" fill="none" xmlns="http://www.w3.org/2000/svg">
<path d="M14.2638 39H7.77447C6.69054 39 5.8088 38.1514 5.8088 37.1082V23.0212H2.02277C0.938836 23.0212 0.0570984 22.1723 0.0570984 21.1294V15.093C0.0570984 14.0498 0.938836 13.2012 2.02277 13.2012H5.8088V10.1785C5.8088 7.18128 6.78669 4.63131 8.63642 2.80467C10.4945 0.969704 13.0912 0 16.1457 0L21.0948 0.00773617C22.1769 0.00952148 23.0571 0.858124 23.0571 1.89954V7.50412C23.0571 8.54732 22.1757 9.39592 21.092 9.39592L17.7599 9.39711C16.7436 9.39711 16.4849 9.59319 16.4295 9.6533C16.3383 9.75298 16.2298 10.0348 16.2298 10.8128V13.2009H20.8416C21.1888 13.2009 21.5252 13.2834 21.8143 13.4387C22.4378 13.774 22.8255 14.4081 22.8255 15.0933L22.8231 21.1297C22.8231 22.1723 21.9413 23.0209 20.8574 23.0209H16.2298V37.1082C16.2298 38.1514 15.3478 39 14.2638 39V39ZM8.18442 36.7137H13.8539V21.9976C13.8539 21.301 14.4428 20.7345 15.1663 20.7345H20.4474L20.4496 15.4876H15.166C14.4425 15.4876 13.8539 14.9211 13.8539 14.2245V10.8128C13.8539 9.9196 13.9482 8.90378 14.6487 8.14027C15.4952 7.21729 16.8293 7.11076 17.7593 7.11076L20.6815 7.10957V2.29349L16.1439 2.28635C11.2349 2.28635 8.18442 5.31061 8.18442 10.1785V14.2245C8.18442 14.9208 7.59577 15.4876 6.87233 15.4876H2.43272V20.7345H6.87233C7.59577 20.7345 8.18442 21.301 8.18442 21.9976V36.7137ZM21.0902 2.29408H21.0905H21.0902Z" fill="#C4C4C4"/>
</svg>
