<svg width="41" height="31" viewBox="0 0 41 31" fill="none" xmlns="http://www.w3.org/2000/svg">
<path d="M40.1983 0.538309C39.8065 0.0541566 39.1568 -0.125389 38.5791 0.0900656L1.88723 13.5402C1.1542 13.8104 0.639673 14.4657 0.544153 15.2505C0.449549 16.0315 0.788904 16.7893 1.4255 17.2255L6.67024 20.8572C7.17836 21.2092 7.83174 21.247 8.37586 20.9557L19.7528 14.87L10.8859 21.586C10.4697 21.9014 10.221 22.4044 10.221 22.9313V29.1522C10.221 29.794 10.5679 30.3818 11.1264 30.687C11.6858 30.9923 12.3615 30.9619 12.8928 30.6065L16.8774 27.9254L20.7959 30.6356C21.1392 30.8743 21.5481 31 21.9607 31C22.1002 31 22.2403 30.9855 22.3782 30.9564C22.9285 30.84 23.4152 30.4951 23.714 30.0103L40.3146 2.24337C40.6378 1.70876 40.5914 1.02463 40.1983 0.538309V0.538309ZM21.8732 28.5018L17.8152 25.6951C17.533 25.4994 17.2076 25.4016 16.8826 25.4016C16.5646 25.4016 16.2463 25.4954 15.9677 25.683L12.5659 27.9719V23.2823L28.2229 11.4234C28.9221 10.8937 29.0982 9.92976 28.6322 9.18124C28.1659 8.43272 27.2323 8.17981 26.4605 8.59277L7.64955 18.655L3.21352 15.5833L37.0016 3.19774L21.8732 28.5018Z" fill="#C4C4C4"/>
</svg>
