<svg width="41" height="40" viewBox="0 0 41 40" fill="none" xmlns="http://www.w3.org/2000/svg">
<path d="M34.4426 5.69165C30.8218 2.07089 26.0089 0.0771484 20.8881 0.0771484C20.8878 0.0771484 20.8866 0.0771484 20.8863 0.0771484C18.3537 0.07745 15.8855 0.567818 13.551 1.53498C11.2162 2.50215 9.12442 3.90057 7.33334 5.69165C3.71288 9.31211 1.71914 14.1259 1.71914 19.2461C1.71914 22.2996 2.4559 25.3341 3.85191 28.0378L0.629839 37.2426C0.402749 37.8919 0.563491 38.5976 1.05024 39.084C1.39072 39.4248 1.83887 39.6057 2.29968 39.6057C2.49722 39.6057 2.69686 39.5726 2.89168 39.5044L12.0965 36.2826C14.8001 37.6787 17.8346 38.4154 20.8881 38.4154C26.0083 38.4154 30.8218 36.4214 34.4426 32.8009C38.0631 29.1805 40.0571 24.3666 40.0571 19.2464C40.0571 14.1259 38.0634 9.31211 34.4426 5.69165ZM32.8032 31.1615C29.6207 34.3444 25.3889 36.0969 20.8881 36.0969C18.1347 36.0969 15.3994 35.4159 12.9777 34.127C12.5386 33.8935 12.0196 33.8534 11.5536 34.0166L3.19085 36.9434L6.11798 28.5806C6.28113 28.1141 6.24072 27.5951 6.0073 27.1563C4.71865 24.7352 4.03738 21.9999 4.03738 19.2461C4.03738 14.7454 5.79016 10.5136 8.97273 7.33103C12.155 4.14877 16.3861 2.39599 20.8866 2.39539H20.8881C25.3892 2.39539 29.6207 4.14817 32.8032 7.33103C35.9861 10.5136 37.7389 14.7451 37.7389 19.2461C37.7389 23.7472 35.9861 27.979 32.8032 31.1615Z" fill="#C4C4C4"/>
<path d="M28.0123 20.9585C27.1305 20.0766 25.6956 20.0766 24.8137 20.9585L23.8493 21.9229C21.4544 20.618 19.5165 18.68 18.2113 16.2852L19.1757 15.3207C20.0578 14.4389 20.0578 13.004 19.1757 12.1222L16.5767 9.52318C15.6949 8.64136 14.26 8.64136 13.3781 9.52318L11.2991 11.6023C10.1081 12.7932 10.0487 14.8406 11.1317 17.3676C12.072 19.5615 13.7928 21.973 15.9772 24.1573C18.1615 26.3417 20.5729 28.0625 22.7669 29.0028C23.9675 29.5173 25.0595 29.7739 26.0032 29.7739C27.0457 29.7739 27.907 29.4606 28.5322 28.8354L30.6113 26.756V26.7563C31.0386 26.329 31.2739 25.7611 31.2739 25.1571C31.2739 24.5527 31.0386 23.9848 30.6113 23.5578L28.0123 20.9585ZM26.8928 27.196C26.5529 27.5359 25.5077 27.655 23.6804 26.8721C21.7509 26.0452 19.5973 24.4987 17.6165 22.5179C15.6358 20.5372 14.0896 18.3839 13.2626 16.4544C12.4794 14.6271 12.5986 13.5815 12.9384 13.2417L14.9777 11.2024L17.4965 13.7215L16.2893 14.929C15.7434 15.4748 15.6116 16.3027 15.9618 16.9891C17.549 20.1014 20.0331 22.5855 23.1454 24.1727C23.8321 24.5228 24.6599 24.3913 25.2058 23.8452L26.413 22.638L28.9321 25.1571L26.8928 27.196Z" fill="#C4C4C4"/>
</svg>
